<svg width="22" height="20" viewBox="0 0 22 20" fill="none" xmlns="http://www.w3.org/2000/svg">
<path d="M13.1477 0.308787L21.7046 9.25452C22.0985 9.66624 22.0985 10.3338 21.7046 10.7455L13.1477 19.6912C12.7539 20.1029 12.1153 20.1029 11.7215 19.6912L10.2954 18.2003C9.90154 17.7885 9.90154 17.121 10.2954 16.7093L14.8 12L1 12C0.447716 12 2.38419e-07 11.5523 2.38419e-07 11L0 9C0 8.44772 0.447715 8 1 8L14.8 8L10.2954 3.2907C9.90154 2.87898 9.90154 2.21146 10.2954 1.79974L11.7215 0.308787C12.1153 -0.102929 12.7539 -0.102929 13.1477 0.308787Z" fill="white"/>
</svg>
