<svg width="60" height="60" viewBox="0 0 60 60" fill="none" xmlns="http://www.w3.org/2000/svg">
<path d="M29 19C28.4477 19 28 19.4477 28 20V33.8L23.2907 29.2954C22.879 28.9015 22.2115 28.9015 21.7997 29.2954L20.3088 30.7215C19.8971 31.1153 19.8971 31.7539 20.3088 32.1477L29.2545 40.7046C29.6662 41.0985 30.3338 41.0985 30.7455 40.7046L39.6912 32.1477C40.1029 31.7539 40.1029 31.1153 39.6912 30.7215L38.2003 29.2954C37.7885 28.9015 37.121 28.9015 36.7093 29.2954L32 33.8V20C32 19.4477 31.5523 19 31 19H29Z" fill="white"/>
<rect x="1" y="1" width="58" height="58" rx="29" stroke="white" stroke-width="2"/>
</svg>
