<svg width="32" height="32" viewBox="0 0 32 32" fill="none" xmlns="http://www.w3.org/2000/svg">
<rect width="32" height="32" fill="#F5F5F5"/>
<g clip-path="url(#clip0_19_43)">
<rect width="32" height="32" rx="10" fill="#2BD999"/>
<path d="M15 6C14.4477 6 14 6.44772 14 7V14H7C6.44772 14 6 14.4477 6 15V17C6 17.5523 6.44772 18 7 18H14V25C14 25.5523 14.4477 26 15 26H17C17.5523 26 18 25.5523 18 25V18H25C25.5523 18 26 17.5523 26 17V15C26 14.4477 25.5523 14 25 14H18V7C18 6.44772 17.5523 6 17 6H15Z" fill="white"/>
</g>
<defs>
<clipPath id="clip0_19_43">
<rect width="32" height="32" fill="white"/>
</clipPath>
</defs>
</svg>
