<svg width="24" height="24" viewBox="0 0 24 24" fill="none" xmlns="http://www.w3.org/2000/svg">
<path d="M17.3878 8.39C17.5121 8.51387 17.6107 8.66106 17.678 8.82313C17.7453 8.9852 17.7799 9.15896 17.7799 9.33444C17.7799 9.50993 17.7453 9.68369 17.678 9.84576C17.6107 10.0078 17.5121 10.155 17.3878 10.2789L11.1656 16.5011C11.0417 16.6254 10.8945 16.724 10.7324 16.7913C10.5704 16.8586 10.3966 16.8933 10.2211 16.8933C10.0456 16.8933 9.87187 16.8586 9.7098 16.7913C9.54773 16.724 9.40054 16.6254 9.27667 16.5011L6.61 13.8344C6.48598 13.7104 6.3876 13.5632 6.32047 13.4011C6.25335 13.2391 6.2188 13.0654 6.2188 12.89C6.2188 12.7146 6.25335 12.5409 6.32047 12.3789C6.3876 12.2168 6.48598 12.0696 6.61 11.9456C6.73403 11.8215 6.88127 11.7231 7.04332 11.656C7.20537 11.5889 7.37905 11.5544 7.55445 11.5544C7.72985 11.5544 7.90353 11.5889 8.06558 11.656C8.22762 11.7231 8.37487 11.8215 8.49889 11.9456L10.2222 13.6667L15.5011 8.38667C15.6252 8.26292 15.7724 8.16483 15.9344 8.09802C16.0964 8.0312 16.2699 7.99697 16.4451 7.99728C16.6204 7.99759 16.7938 8.03244 16.9555 8.09982C17.1173 8.16721 17.2642 8.26581 17.3878 8.39ZM24 12C24 14.3734 23.2962 16.6934 21.9776 18.6668C20.6591 20.6402 18.7849 22.1783 16.5922 23.0865C14.3995 23.9948 11.9867 24.2324 9.65892 23.7694C7.33115 23.3064 5.19295 22.1635 3.51472 20.4853C1.83649 18.807 0.693605 16.6689 0.230582 14.3411C-0.232441 12.0133 0.00519943 9.60051 0.913451 7.4078C1.8217 5.21508 3.35977 3.34094 5.33316 2.02236C7.30655 0.703788 9.62663 0 12 0C15.1815 0.00352914 18.2317 1.26894 20.4814 3.51862C22.7311 5.76829 23.9965 8.81848 24 12ZM21.3333 12C21.3333 10.154 20.7859 8.34953 19.7604 6.81468C18.7348 5.27982 17.2772 4.08354 15.5717 3.37712C13.8663 2.67071 11.9896 2.48587 10.1792 2.846C8.36867 3.20613 6.70563 4.09505 5.40034 5.40034C4.09505 6.70563 3.20614 8.36867 2.84601 10.1792C2.48588 11.9896 2.67071 13.8663 3.37713 15.5717C4.08355 17.2772 5.27982 18.7348 6.81468 19.7604C8.34954 20.7859 10.154 21.3333 12 21.3333C14.4745 21.3307 16.847 20.3465 18.5967 18.5967C20.3465 16.847 21.3307 14.4745 21.3333 12Z" fill="#2BD999"/>
</svg>
